<svg fill="#ffeb3b" xmlns="http://www.w3.org/2000/svg" viewBox="0 0 218.42 218.42" xml:space="preserve">
  <path
      d="M158.414 190.405C183.601 172.247 200 142.659 200 109.237c0-55.228-44.771-100-100-100S0 54.008 0 109.237c0 53.802 42.489 97.672 95.741 99.903l122.679.042v-18.777h-60.006zm-88.953-65.234c-8.8 8.8-23.066 8.8-31.866 0s-8.8-23.067 0-31.866c8.8-8.8 23.066-8.8 31.866 0s8.8 23.066 0 31.866zm46.473 46.472c-8.8 8.8-23.067 8.8-31.867 0s-8.8-23.066 0-31.866 23.067-8.8 31.867 0c8.798 8.799 8.798 23.066 0 31.866zm0-92.944c-8.8 8.8-23.067 8.8-31.867 0s-8.8-23.066 0-31.866c8.8-8.801 23.067-8.801 31.867 0 8.798 8.8 8.798 23.066 0 31.866zm14.604 46.472c-8.8-8.8-8.8-23.066 0-31.866s23.066-8.8 31.867 0c8.8 8.799 8.8 23.066-.001 31.866-8.8 8.8-23.066 8.8-31.866 0z"/>
</svg>