<svg viewBox="0 0 147.59514 22.31616" xmlns="http://www.w3.org/2000/svg">
  <defs>
    <path id="a" d="M34.34692 345.0304h713.47913v241.98964H34.34692z"/>
  </defs>
  <g>
    <path
        d="M42.66766 382.78625v-22.44h-7.08v-2.52h17.28v2.52h-7.36v22.44zm13.87528-18.28h3l-.12 5.32-.36-.6q.24-1.24.84-2.2.6-.96 1.44-1.6.84-.68 1.84-1 1-.36 2.08-.36 1.44 0 2.64.52 1.24.48 2.2 1.48l-1.28 2.24-.16.36-.28-.16q-.08-.32-.24-.6-.16-.28-.68-.68-.64-.4-1.2-.52-.52-.16-1.2-.16-1 0-2 .4-1 .36-1.84 1.16-.8.8-1.28 2.04t-.48 2.96v9.72h-2.92zm21.11528 18.72q-3.12 0-4.8-1.4-1.68-1.44-1.68-3.64 0-1.48.72-2.64.72-1.2 1.96-2 1.28-.84 2.96-1.28 1.68-.44 3.56-.44.68 0 1.36.04.72 0 1.48.08.8.04 1.64.16l.08 2.2q-.72-.12-1.48-.16-.72-.08-1.44-.12-.72-.04-1.4-.04-1.44 0-2.64.24-1.2.24-2.08.72-.88.48-1.36 1.24-.48.76-.48 1.84 0 .84.28 1.44.32.56.84.92.52.32 1.2.48.72.16 1.56.16 1.56 0 2.76-.48 1.24-.52 2.08-1.48.88-.96 1.32-2.36.44-1.4.44-3.2 0-2.72-.64-4.24t-1.92-2.16q-1.24-.64-3.2-.64-1.32 0-2.6.52-1.28.48-2.32 1.52l-1.4-1.84q1.28-1.28 2.96-1.92 1.68-.64 3.56-.64 1.8 0 3.28.44 1.48.44 2.52 1.48 1.08 1 1.64 2.72.6 1.72.6 4.32v9.72h-3.12v-2.8q-.52 1-1.28 1.64-.72.64-1.56 1-.84.32-1.72.44-.88.16-1.68.16zm20.39528 0q-2 0-3.68-.72-1.68-.72-2.92-2-1.2-1.28-1.88-3-.68-1.76-.68-3.84 0-2.04.68-3.76.68-1.76 1.88-3.04 1.24-1.28 2.92-2t3.64-.72q2.24 0 4 .92 1.8.88 2.92 2.48l-1.8 1.76-.28.28-.2-.2q0-.32-.16-.6-.12-.28-.6-.76-.88-.8-1.88-1.12-1-.32-2.32-.32-1.16 0-2.2.48-1.04.48-1.88 1.4-.8.88-1.28 2.16-.48 1.28-.48 2.84 0 1.56.48 2.88.48 1.28 1.32 2.24.84.96 2 1.52 1.2.52 2.56.52.92 0 1.76-.24.84-.28 1.6-.76.76-.52 1.4-1.24l1.68 1.96q-1.36 1.44-3.04 2.16-1.64.72-3.56.72zm13.99528-9.6-2.4 2.24v6.92h-2.92v-26.6h3.28v.28q-.24.24-.32.52-.04.28-.04.96v14.96l9.16-8.48.48.08.48.08q.28 0 .56.04h1.64l-7.68 7.24 8.96 10.92-3.72.16zm19.51528 9.56q-1.52 0-2.92-.32-1.36-.32-2.6-.96-1.2-.64-2.24-1.6l1.6-2.72.24-.36.24.16q.08.32.16.68.12.32.56.8.84.84 2 1.4 1.2.52 3.04.52 1.48 0 2.48-.36 1.04-.36 1.6-1 .56-.68.56-1.56 0-.6-.24-1.04-.24-.48-.8-.88-.52-.4-1.4-.8-.88-.4-2.16-.8-2.08-.6-3.64-1.4-1.56-.8-2.4-1.84-.84-1.08-.84-2.44 0-1.4.76-2.4.76-1.04 2.24-1.6 1.52-.6 3.72-.6 1.28 0 2.32.2 1.04.16 1.92.52.88.36 1.6.92.76.52 1.44 1.24l-1.64 2-.28.32-.2-.2q-.04-.32-.2-.6-.12-.32-.56-.76-.92-.72-2.08-1.08-1.16-.4-2.24-.4-1.6 0-2.76.56-1.16.56-1.16 1.72 0 .6.4 1.2.44.56 1.56 1.16 1.12.56 3.2 1.16 2.28.72 3.64 1.48 1.4.72 2 1.68.64.96.64 2.28 0 1.52-.84 2.84-.8 1.32-2.48 2.12-1.68.76-4.24.76zm10.31528-27h3.16v.28q-.24.24-.32.52-.04.28-.04.96v9.8q.72-1.12 1.68-1.92 1-.84 2.08-1.28 1.12-.48 2.24-.48 1.64 0 2.88.76 1.28.76 1.96 2.44.72 1.68.72 4.44v11.08h-2.8v-11q0-1.92-.44-3.04-.44-1.16-1.2-1.64-.76-.52-1.72-.52-.72 0-1.48.24t-1.48.72q-.68.48-1.24 1.2-.56.68-.88 1.56-.32.88-.32 1.96v10.52h-2.8zm41.83084 26.64-3.68-18.32h2.52l2.96 14.68 3.12-12.96h1.76l3.88 12.92q.52-3.56.84-5.84.36-2.28.52-3.72.2-1.48.24-2.48.08-1 .08-2v-.6h2.68q-.4 3.08-.88 6.16-.44 3.04-1 6.08-.52 3.04-1.16 6.08h-2.72l-3.36-11.84-3.2 11.84zm23.15527.36q-1.52 0-2.92-.32-1.36-.32-2.6-.96-1.2-.64-2.24-1.6l1.6-2.72.24-.36.24.16q.08.32.16.68.12.32.56.8.84.84 2 1.4 1.2.52 3.04.52 1.48 0 2.48-.36 1.04-.36 1.6-1 .56-.68.56-1.56 0-.6-.24-1.04-.24-.48-.8-.88-.52-.4-1.4-.8-.88-.4-2.16-.8-2.08-.6-3.64-1.4-1.56-.8-2.4-1.84-.84-1.08-.84-2.44 0-1.4.76-2.4.76-1.04 2.24-1.6 1.52-.6 3.72-.6 1.28 0 2.32.2 1.04.16 1.92.52.88.36 1.6.92.76.52 1.44 1.24l-1.64 2-.28.32-.2-.2q-.04-.32-.2-.6-.12-.32-.56-.76-.92-.72-2.08-1.08-1.16-.4-2.24-.4-1.6 0-2.76.56-1.16.56-1.16 1.72 0 .6.4 1.2.44.56 1.56 1.16 1.12.56 3.2 1.16 2.28.72 3.64 1.48 1.4.72 2 1.68.64.96.64 2.28 0 1.52-.84 2.84-.8 1.32-2.48 2.12-1.68.76-4.24.76z"
        aria-label="Trackshows" transform="translate(-29.37055 -293.96112) scale(.8253)"/>
  </g>
  <path
      d="M114.48108 20.61111c1.99941-1.44143 3.30121-3.79021 3.30121-6.44335 0-4.38416-3.55405-7.9383-7.93829-7.9383s-7.93829 3.55406-7.93829 7.9383c0 4.27096 3.3729 7.75349 7.6002 7.9306l9.73862.00333V20.6111Zm-7.06135-5.17846c-.69857.69857-1.83105.69857-2.52962 0-.69857-.69857-.69857-1.83113 0-2.52962.69857-.69857 1.83105-.69857 2.52962 0 .69857.69857.69857 1.83105 0 2.52962zm3.68916 3.68908c-.69857.69857-1.83113.69857-2.5297 0-.69857-.69857-.69857-1.83104 0-2.52961.69857-.69857 1.83113-.69857 2.5297 0 .69841.69849.69841 1.83104 0 2.52961zm0-7.37816c-.69857.69857-1.83113.69857-2.5297 0-.69857-.69857-.69857-1.83105 0-2.52962.69857-.69865 1.83113-.69865 2.5297 0 .69841.69857.69841 1.83105 0 2.52962zm1.1593 3.68908c-.69856-.69857-.69856-1.83105 0-2.52962.69858-.69857 1.83105-.69857 2.5297 0 .69857.6985.69857 1.83105-.00008 2.52962-.69857.69857-1.83104.69857-2.52961 0z"/>
</svg>